<svg width="49" height="64" viewBox="0 0 49 64" fill="none" xmlns="http://www.w3.org/2000/svg">
<circle cx="28" cy="25" r="11" stroke="#222222" stroke-width="3.5"/>
<path d="M40.64 44.544C39.872 45.056 38.8267 45.632 37.504 46.272C36.1813 46.912 34.624 47.4453 32.832 47.872C31.0827 48.2987 29.1627 48.512 27.072 48.512C23.488 48.4693 20.2453 47.8293 17.344 46.592C14.4853 45.3547 12.0533 43.6693 10.048 41.536C8.04267 39.4027 6.48533 36.9493 5.376 34.176C4.30933 31.36 3.776 28.3733 3.776 25.216C3.776 21.76 4.33067 18.5813 5.44 15.68C6.592 12.736 8.192 10.1973 10.24 8.064C12.288 5.888 14.6987 4.20267 17.472 3.008C20.288 1.81333 23.36 1.216 26.688 1.216C29.4613 1.216 31.9787 1.6 34.24 2.368C36.5013 3.09333 38.4427 3.968 40.064 4.992L37.568 10.752C36.288 9.89866 34.7307 9.088 32.896 8.32C31.104 7.552 29.0987 7.168 26.88 7.168C24.6187 7.168 22.4853 7.616 20.48 8.512C18.4747 9.408 16.704 10.6667 15.168 12.288C13.632 13.9093 12.416 15.808 11.52 17.984C10.6667 20.1173 10.24 22.4213 10.24 24.896C10.24 27.4133 10.624 29.76 11.392 31.936C12.2027 34.0693 13.3333 35.9253 14.784 37.504C16.2773 39.0827 18.0693 40.32 20.16 41.216C22.2507 42.112 24.5973 42.56 27.2 42.56C29.5467 42.56 31.6373 42.1973 33.472 41.472C35.3067 40.7467 36.8213 39.936 38.016 39.04L40.64 44.544Z" fill="#222222"/>
</svg>
