<svg width="75" height="78" viewBox="0 0 75 78" fill="none" xmlns="http://www.w3.org/2000/svg">
<ellipse cx="37.5" cy="38.5" rx="37.5" ry="38.5" fill="#D9D9D9"/>
<circle cx="41" cy="39" r="11" stroke="#222222" stroke-width="3.5"/>
<path d="M53.64 58.544C52.872 59.056 51.8267 59.632 50.504 60.272C49.1813 60.912 47.624 61.4453 45.832 61.872C44.0827 62.2987 42.1627 62.512 40.072 62.512C36.488 62.4693 33.2453 61.8293 30.344 60.592C27.4853 59.3547 25.0533 57.6693 23.048 55.536C21.0427 53.4027 19.4853 50.9493 18.376 48.176C17.3093 45.36 16.776 42.3733 16.776 39.216C16.776 35.76 17.3307 32.5813 18.44 29.68C19.592 26.736 21.192 24.1973 23.24 22.064C25.288 19.888 27.6987 18.2027 30.472 17.008C33.288 15.8133 36.36 15.216 39.688 15.216C42.4613 15.216 44.9787 15.6 47.24 16.368C49.5013 17.0933 51.4427 17.968 53.064 18.992L50.568 24.752C49.288 23.8987 47.7307 23.088 45.896 22.32C44.104 21.552 42.0987 21.168 39.88 21.168C37.6187 21.168 35.4853 21.616 33.48 22.512C31.4747 23.408 29.704 24.6667 28.168 26.288C26.632 27.9093 25.416 29.808 24.52 31.984C23.6667 34.1173 23.24 36.4213 23.24 38.896C23.24 41.4133 23.624 43.76 24.392 45.936C25.2027 48.0693 26.3333 49.9253 27.784 51.504C29.2773 53.0827 31.0693 54.32 33.16 55.216C35.2507 56.112 37.5973 56.56 40.2 56.56C42.5467 56.56 44.6373 56.1973 46.472 55.472C48.3067 54.7467 49.8213 53.936 51.016 53.04L53.64 58.544Z" fill="#222222"/>
</svg>
